<svg xmlns="http://www.w3.org/2000/svg" id="svg20181107-03-1" width="50%" viewBox="0 0 118.0 126.0">
  <style>
    #svg20181107-03-1 {
      border: 1px solid #e8e8e8;
    }
    .svg20181107-03-l1 {
      stroke: black;
      stroke-linecap: butt;
      stroke-linejoin: bevel;
      fill: none;
    }
    .svg20181107-03-l2 {
      stroke: black;
      stroke-linecap: butt;
      stroke-linejoin: miter;
      fill: none;
    }
    .svg20181107-03-l3 {
      stroke: black;
      stroke-width: 0.5;
      stroke-linecap: round;
      stroke-linejoin: round;
      fill: none;
    }
    .svg20181107-03-f1 {
      fill: #ffddee;
    }
    .svg20181107-03-f2 {
      fill: #ddddff;
    }
    .svg20181107-03-t1 {
      font-family: serif;
      font-size: 6px;
      text-anchor: middle;
      dominant-baseline: middle;
    }
  </style>
  <path class="svg20181107-03-f1" d="M 52.0 42.0 L 34.0 66.0 L 10.0 48.0 L 28.0 24.0 Z"/>
  <path class="svg20181107-03-f1" d="M 34.0 66.0 L 52.0 66.0 L 52.0 116.0 L 34.0 116.0 Z"/>
  <path class="svg20181107-03-f2" d="M 52.0 42.0 L 84.0 66.0 L 108.0 34.0 L 76.0 10.0 Z"/>
  <path class="svg20181107-03-f2" d="M 84.0 66.0 L 52.0 66.0 L 52.0 116.0 L 84.0 116.0 Z"/>
  <path class="svg20181107-03-l1" d="M 52.0 42.0 L 34.0 66.0 L 84.0 66.0 Z"/>
  <path class="svg20181107-03-l2" d="M 52.0 42.0 L 34.0 66.0 L 10.0 48.0 L 28.0 24.0 Z"/>
  <path class="svg20181107-03-l2" d="M 52.0 42.0 L 84.0 66.0 L 108.0 34.0 L 76.0 10.0 Z"/>
  <path class="svg20181107-03-l2" d="M 34.0 66.0 L 84.0 66.0 L 84.0 116.0 L 34.0 116.0 Z"/>
  <path class="svg20181107-03-l3" d="M 52.0 42.0 L 52.0 116.0"/>
  <path class="svg20181107-03-l3" d="M 52.0 42.0 L 34.0 116.0"/>
  <path class="svg20181107-03-l3" d="M 84.0 66.0 L 10.0 48.0"/>
  <text class="svg20181107-03-t1" x="51.5" y="35.0">A</text>
  <text class="svg20181107-03-t1" x="29.0" y="71.0">B</text>
  <text class="svg20181107-03-t1" x="89.0" y="71.0">C</text>
  <text class="svg20181107-03-t1" x="29.0" y="121.0">D</text>
  <text class="svg20181107-03-t1" x="89.0" y="121.0">E</text>
  <text class="svg20181107-03-t1" x="5.0" y="48.0">F</text>
  <text class="svg20181107-03-t1" x="28.0" y="19.0">G</text>
  <text class="svg20181107-03-t1" x="76.0" y="5.0">H</text>
  <text class="svg20181107-03-t1" x="113.0" y="34.0">K</text>
  <text class="svg20181107-03-t1" x="52.0" y="121.0">L</text>
  <text class="svg20181107-03-t1" x="57.0" y="71.0">M</text>
</svg>