<svg xmlns="http://www.w3.org/2000/svg" id="svg20250515-3-box" width="100%" viewBox="0 0 800 380">
  <style>
    #svg20250515-3-box {
      border: 1px solid #e8e8e8;
      background-color: #f5f5f5;
    }
    .svg20250515-3-t1 {
      font-family: sans-serif;
      font-size: 16px;
      dominant-baseline: middle;
    }
    .svg20250515-3-l1 {
      stroke: #000000;
      stroke-width: 2;
      fill: none;
    }
    .svg20250515-3-task_white {
      stroke: #000000;
      stroke-width: 4;
      fill: #ffffff;
    }
    .svg20250515-3-task_orange {
      stroke: #000000;
      stroke-width: 4;
      fill: #f5bb00;
    }
    .svg20250515-3-task_pink {
      stroke: #000000;
      stroke-width: 4;
      fill: #ff36ab;
    }
    .svg20250515-3-task_pink1 {
      stroke: #000000;
      stroke-width: 4;
      fill: #ffcdea;
    }
    .svg20250515-3-task_pink2 {
      stroke: #000000;
      stroke-width: 4;
      fill: #ff9bd5;
    }
    .svg20250515-3-task_pink3 {
      stroke: #000000;
      stroke-width: 4;
      fill: #ff69c0;
    }
  </style>
  <defs>
    <marker id="svg20250515-3-arrow" viewBox="0, 0, 10, 10" refX="5" refY="5" markerWidth="6" markerHeight="6" orient="auto-start-reverse">
      <path d="M 0 0 L 10 5 L 0 10 L 2.5 5 Z"/>
    </marker>
  </defs>
  <rect x="10" y="10" width="100" height="30" class="svg20250515-3-task_orange"/>
  <rect x="10" y="40" width="100" height="30" class="svg20250515-3-task_orange"/>
  <text class="svg20250515-3-t1" x="20" y="25">min_node</text>
  <text class="svg20250515-3-t1" x="20" y="55">size</text>
  <rect x="350" y="10" width="100" height="30" class="svg20250515-3-task_white"/>
  <rect x="350" y="40" width="100" height="30" class="svg20250515-3-task_white"/>
  <rect x="350" y="70" width="100" height="30" class="svg20250515-3-task_white"/>
  <rect x="350" y="100" width="100" height="30" class="svg20250515-3-task_pink"/>
  <line class="svg20250515-3-l1" x1="350" y1="40" x2="450" y2="10"/>
  <text class="svg20250515-3-t1" x="360" y="25">parent</text>
  <text class="svg20250515-3-t1" x="360" y="55">left</text>
  <text class="svg20250515-3-t1" x="360" y="85">right</text>
  <text class="svg20250515-3-t1" x="360" y="115">data</text>
  <path class="svg20250515-3-l1" d="M 110 25 h 232" marker-end="url(#svg20250515-3-arrow)"/>
  <path class="svg20250515-3-l1" d="M 350 55 h -100 v 67" marker-end="url(#svg20250515-3-arrow)"/>
  <path class="svg20250515-3-l1" d="M 450 85 h 100 v 37" marker-end="url(#svg20250515-3-arrow)"/>
  <rect x="220" y="130" width="100" height="30" class="svg20250515-3-task_white"/>
  <rect x="220" y="160" width="100" height="30" class="svg20250515-3-task_white"/>
  <rect x="220" y="190" width="100" height="30" class="svg20250515-3-task_white"/>
  <rect x="220" y="220" width="100" height="30" class="svg20250515-3-task_pink3"/>
  <line class="svg20250515-3-l1" x1="220" y1="220" x2="320" y2="190"/>
  <text class="svg20250515-3-t1" x="230" y="145">parent</text>
  <text class="svg20250515-3-t1" x="230" y="175">left</text>
  <text class="svg20250515-3-t1" x="230" y="205">right</text>
  <text class="svg20250515-3-t1" x="230" y="235">data</text>
  <path class="svg20250515-3-l1" d="M 220 175 h -100 v 67" marker-end="url(#svg20250515-3-arrow)"/>
  <path class="svg20250515-3-l1" d="M 300 130 v -15 h 42" marker-end="url(#svg20250515-3-arrow)"/>
  <rect x="480" y="130" width="100" height="30" class="svg20250515-3-task_white"/>
  <rect x="480" y="160" width="100" height="30" class="svg20250515-3-task_white"/>
  <rect x="480" y="190" width="100" height="30" class="svg20250515-3-task_white"/>
  <rect x="480" y="220" width="100" height="30" class="svg20250515-3-task_pink2"/>
  <line class="svg20250515-3-l1" x1="480" y1="190" x2="580" y2="160"/>
  <line class="svg20250515-3-l1" x1="480" y1="220" x2="580" y2="190"/>
  <text class="svg20250515-3-t1" x="490" y="145">parent</text>
  <text class="svg20250515-3-t1" x="490" y="175">left</text>
  <text class="svg20250515-3-t1" x="490" y="205">right</text>
  <text class="svg20250515-3-t1" x="490" y="235">data</text>
  <path class="svg20250515-3-l1" d="M 500 130 v -15 h -42" marker-end="url(#svg20250515-3-arrow)"/>
  <rect x="90" y="250" width="100" height="30" class="svg20250515-3-task_white"/>
  <rect x="90" y="280" width="100" height="30" class="svg20250515-3-task_white"/>
  <rect x="90" y="310" width="100" height="30" class="svg20250515-3-task_white"/>
  <rect x="90" y="340" width="100" height="30" class="svg20250515-3-task_pink1"/>
  <line class="svg20250515-3-l1" x1="90" y1="310" x2="190" y2="280"/>
  <line class="svg20250515-3-l1" x1="90" y1="340" x2="190" y2="310"/>
  <text class="svg20250515-3-t1" x="100" y="265">parent</text>
  <text class="svg20250515-3-t1" x="100" y="295">left</text>
  <text class="svg20250515-3-t1" x="100" y="325">right</text>
  <text class="svg20250515-3-t1" x="100" y="355">data</text>
  <path class="svg20250515-3-l1" d="M 170 250 v -15 h 42" marker-end="url(#svg20250515-3-arrow)"/>
</svg>