<svg xmlns="http://www.w3.org/2000/svg" id="svg20250603-3-box" width="100%" viewBox="0 0 800 300">
  <style>
    #svg20250603-3-box {
      border: 1px solid #e8e8e8;
      background-color: #f5f5f5;
    }
    .svg20250603-3-t1 {
      font-family: sans-serif;
      font-size: 16px;
      dominant-baseline: middle;
    }
    .svg20250603-3-l1 {
      stroke: #000000;
      stroke-width: 2;
      fill: none;
    }
    .svg20250603-3-l2 {
      stroke: #000000;
      stroke-dasharray: 5;
      stroke-width: 2;
      fill: none;
    }
    .svg20250603-3-task_white {
      stroke: #000000;
      stroke-width: 4;
      fill: #ffffff;
    }
    .svg20250603-3-task_orange {
      stroke: #000000;
      stroke-width: 4;
      fill: #f5bb00;
    }
    .svg20250603-3-task_pink {
      stroke: #000000;
      stroke-width: 4;
      fill: #ff36ab;
    }
    .svg20250603-3-task_red {
      stroke: #000000;
      stroke-width: 4;
      fill: #ee6055;
    }
  </style>
  <defs>
    <marker id="svg20250603-3-arrow" viewBox="0, 0, 10, 10" refX="5" refY="5" markerWidth="6" markerHeight="6" orient="auto-start-reverse">
      <path d="M 0 0 L 10 5 L 0 10 L 2.5 5 Z"/>
    </marker>
  </defs>
  <rect x="30" y="10" width="100" height="150" class="svg20250603-3-task_white"/>
  <rect x="30" y="160" width="100" height="80" class="svg20250603-3-task_orange"/>
  <rect x="30" y="240" width="100" height="30" class="svg20250603-3-task_white"/>
  <path class="svg20250603-3-l1" d="M 80 30 v 222" marker-end="url(#svg20250603-3-arrow)"/>
  <rect x="480" y="50" width="100" height="30" class="svg20250603-3-task_red"/>
  <text class="svg20250603-3-t1" x="490" y="65">stop</text>
  <rect x="480" y="80" width="100" height="30" class="svg20250603-3-task_white"/>
  <text class="svg20250603-3-t1" x="490" y="95">head</text>
  <rect x="480" y="110" width="100" height="30" class="svg20250603-3-task_white"/>
  <text class="svg20250603-3-t1" x="490" y="125">tail</text>
  <path class="svg20250603-3-l1" d="M 480 110 l 100 -30"/>
  <path class="svg20250603-3-l1" d="M 480 140 l 100 -30"/>
  <path class="svg20250603-3-l2" d="M 80 150 h 92" marker-end="url(#svg20250603-3-arrow)"/>
  <text class="svg20250603-3-t1" x="140" y="135">stop_callback</text>
  <rect x="180" y="150" width="100" height="30" class="svg20250603-3-task_white"/>
  <text class="svg20250603-3-t1" x="190" y="165">next</text>
  <rect x="180" y="180" width="100" height="30" class="svg20250603-3-task_white"/>
  <text class="svg20250603-3-t1" x="190" y="195">prev</text>
  <rect x="180" y="210" width="100" height="60" class="svg20250603-3-task_white"/>
  <text class="svg20250603-3-t1" x="190" y="240">callback</text>
  <path class="svg20250603-3-l1" d="M 180 180 l 100 -30"/>
  <path class="svg20250603-3-l1" d="M 180 210 l 100 -30"/>
  <path class="svg20250603-3-l1" d="M 180 270 l 100 -60"/>
  <rect x="630" y="10" width="100" height="280" class="svg20250603-3-task_white"/>
  <path class="svg20250603-3-l1" d="M 680 30 v 240" marker-end="url(#svg20250603-3-arrow)"/>
  <path class="svg20250603-3-l2" d="M 680 65 h -92" marker-end="url(#svg20250603-3-arrow)"/>
  <text class="svg20250603-3-t1" x="500" y="35">source.request_stop()</text>
  <path class="svg20250603-3-l2" d="M 280 165 h 100 v -90 h 92" marker-end="url(#svg20250603-3-arrow)"/>
</svg>