<svg xmlns="http://www.w3.org/2000/svg" id="svg20250528-2-box" width="100%" viewBox="0 0 800 320">
  <style>
    #svg20250528-2-box {
      border: 1px solid #e8e8e8;
      background-color: #f5f5f5;
    }
    .svg20250528-2-queue {
      fill: #f4e04d;
    }
    .svg20250528-2-queue2 {
      stroke: #000000;
      stroke-width: 4;
      fill: #f2ed6f;
    }
    .svg20250528-2-l0 {
      stroke: #000000;
      stroke-width: 4;
      fill: none;
    }
    .svg20250528-2-t1 {
      stroke: #000000;
      stroke-width: 4;
      fill: #cee397;
    }
    .svg20250528-2-t2 {
      stroke: #000000;
      stroke-width: 4;
      fill: #cccccc;
    }
    .svg20250528-2-l1 {
      stroke: #000000;
      stroke-width: 2;
      fill: none;
    }
    .svg20250528-2-l2 {
      stroke: #000000;
      stroke-width: 2;
      fill: none;
      stroke-dasharray: 5;
    }
    .svg20250528-2-tx {
      font-family: sans-serif;
      font-size: 16px;
      dominant-baseline: middle;
    }
  </style>
  <defs>
    <marker id="svg20250528-2-arrow" viewBox="0, 0, 10, 10" refX="5" refY="5" markerWidth="6" markerHeight="6" orient="auto-start-reverse">
      <path d="M 0 0 L 10 5 L 0 10 L 2.5 5 Z"/>
    </marker>
  </defs>
  <rect x="20" y="40" width="260" height="170" class="svg20250528-2-queue"/>
  <rect x="30" y="50" width="80" height="150" class="svg20250528-2-queue2"/>
  <path class="svg20250528-2-l0" d="M 40 180 h 60"/>
  <path class="svg20250528-2-l0" d="M 40 160 h 60"/>
  <path class="svg20250528-2-l0" d="M 40 140 h 60"/>
  <rect x="150" y="120" width="120" height="80" class="svg20250528-2-queue2"/>
  <path class="svg20250528-2-l0" d="M 180 180 h 60"/>
  <path class="svg20250528-2-l0" d="M 160 160 h 60"/>
  <path class="svg20250528-2-l0" d="M 200 140 h 60"/>
  <circle cx="140" cy="270" r="40" class="svg20250528-2-t1"/>
  <path class="svg20250528-2-l1" d="M 70 200 l 42 32" marker-end="url(#svg20250528-2-arrow)"/>
  <path class="svg20250528-2-l2" d="M 100 270 h -85 v -240 h 55 v 12" marker-end="url(#svg20250528-2-arrow)"/>
  <path class="svg20250528-2-l1" d="M 210 200 l -42 32" marker-end="url(#svg20250528-2-arrow)"/>
  <path class="svg20250528-2-l2" d="M 180 270 h 105 v -170 h -75 v 12" marker-end="url(#svg20250528-2-arrow)"/>
  <text class="svg20250528-2-tx" x="120" y="60">ready queue</text>
  <text class="svg20250528-2-tx" x="150" y="90">timers heap</text>
</svg>