<svg xmlns="http://www.w3.org/2000/svg" id="svg20230328-02-1" width="100%" viewBox="0 0 620.0 190.0">
  <style>
    #svg20230328-02-1 {
      border: 1px solid #e8e8e8;
      background-color: #f5f5f5;
    }
    .svg20230328-02-l1 {
      stroke: black;
      stroke-width: 3;
      stroke-linecap: butt;
      stroke-linejoin: miter;
      fill: none;
    }
    .svg20230328-02-l2 {
      stroke: black;
      stroke-width: 0;
      stroke-linecap: butt;
      stroke-linejoin: miter;
      fill: #5591c9;
    }
    .svg20230328-02-l3 {
      stroke: black;
      stroke-width: 0;
      stroke-linecap: butt;
      stroke-linejoin: miter;
      fill: #ff5c61;
    }
    .svg20230328-02-t1 {
      font-family: sans-serif;
      font-size: 16px;
      dominant-baseline: middle;
    }
  </style>
  <defs>
    <marker id="svg20230328-02-arrow" viewBox="0, 0, 10, 10" refX="5" refY="5" markerWidth="6" markerHeight="6" orient="auto-start-reverse">
      <path d="M 0 0 L 10 5 L 0 10 L 2.5 5 Z"/>
    </marker>
  </defs>
  <rect class="svg20230328-02-l2" x="10.0" y="56.0" width="100.0" height="30.0"/>
  <rect class="svg20230328-02-l3" x="110.0" y="56.0" width="100.0" height="30.0"/>
  <line class="svg20230328-02-l1" x1="110.0" x2="110.0" y1="56.0" y2="86.0"/>
  <rect class="svg20230328-02-l2" x="210.0" y="56.0" width="100.0" height="30.0"/>
  <line class="svg20230328-02-l1" x1="210.0" x2="210.0" y1="56.0" y2="86.0"/>
  <rect class="svg20230328-02-l3" x="310.0" y="56.0" width="100.0" height="30.0"/>
  <line class="svg20230328-02-l1" x1="310.0" x2="310.0" y1="56.0" y2="86.0"/>
  <rect class="svg20230328-02-l2" x="410.0" y="56.0" width="100.0" height="30.0"/>
  <line class="svg20230328-02-l1" x1="410.0" x2="410.0" y1="56.0" y2="86.0"/>
  <rect class="svg20230328-02-l3" x="510.0" y="56.0" width="100.0" height="30.0"/>
  <line class="svg20230328-02-l1" x1="510.0" x2="510.0" y1="56.0" y2="86.0"/>
  <rect class="svg20230328-02-l1" x="10.0" y="56.0" width="600.0" height="30.0"/>
  <line class="svg20230328-02-l1" x1="10.0" y1="26.0" x2="10.0" y2="46.0" marker-end="url(#svg20230328-02-arrow)"/>
  <text class="svg20230328-02-t1" style="text-anchor: start" x="20.0" y="26.0">first</text>
  <line class="svg20230328-02-l1" x1="610.0" y1="26.0" x2="610.0" y2="46.0" marker-end="url(#svg20230328-02-arrow)"/>
  <text class="svg20230328-02-t1" style="text-anchor: end" x="600.0" y="26.0">last</text>
  <line class="svg20230328-02-l1" x1="210.0" y1="26.0" x2="210.0" y2="46.0" marker-end="url(#svg20230328-02-arrow)"/>
  <text class="svg20230328-02-t1" style="text-anchor: start" x="220.0" y="26.0">middle</text>
  <line class="svg20230328-02-l1" x1="60.0" y1="106.0" x2="450.0" y2="106.0" marker-end="url(#svg20230328-02-arrow)"/>
  <line class="svg20230328-02-l1" x1="460.0" y1="126.0" x2="270.0" y2="126.0" marker-end="url(#svg20230328-02-arrow)"/>
  <line class="svg20230328-02-l1" x1="260.0" y1="126.0" x2="70.0" y2="126.0" marker-end="url(#svg20230328-02-arrow)"/>
  <line class="svg20230328-02-l1" x1="160.0" y1="156.0" x2="550.0" y2="156.0" marker-end="url(#svg20230328-02-arrow)"/>
  <line class="svg20230328-02-l1" x1="560.0" y1="176.0" x2="370.0" y2="176.0" marker-end="url(#svg20230328-02-arrow)"/>
  <line class="svg20230328-02-l1" x1="360.0" y1="176.0" x2="170.0" y2="176.0" marker-end="url(#svg20230328-02-arrow)"/>
  <text class="svg20230328-02-t1" style="text-anchor: start" x="470.0" y="116.0">cycle 1</text>
  <text class="svg20230328-02-t1" style="text-anchor: end" x="150.0" y="166.0">cycle 2</text>
  <text class="svg20230328-02-t1" style="text-anchor: middle" x="410.0" y="26.0">gcd(2, 6) = 2</text>
</svg>