<svg xmlns="http://www.w3.org/2000/svg" id="svg20250513-0-box" width="100%" viewBox="0 0 800 300">
  <style>
    #svg20250513-0-box {
      border: 1px solid #e8e8e8;
      background-color: #f5f5f5;
    }
    .svg20250513-0-lzoom {
      stroke: #cccccc;
      stroke-width: 4;
      fill: none;
    }
    .svg20250513-0-task_grey {
      stroke: #000000;
      stroke-width: 4;
      fill: #cccccc;
    }
    .svg20250513-0-task_neutral {
      stroke: #000000;
      stroke-width: 4;
      fill: #2d93ad;
    }
    .svg20250513-0-t1 {
      font-family: sans-serif;
      font-size: 16px;
      dominant-baseline: middle;
    }
  </style>
  <line class="svg20250513-0-lzoom" x1="110" y1="50" x2="400" y2="25"/>
  <line class="svg20250513-0-lzoom" x1="110" y1="85" x2="400" y2="95"/>
  <line class="svg20250513-0-lzoom" x1="110" y1="135" x2="400" y2="190"/>
  <line class="svg20250513-0-lzoom" x1="110" y1="135" x2="400" y2="225"/>
  <rect x="10" y="50" width="100" height="35" class="svg20250513-0-task_neutral"/>
  <rect x="10" y="85" width="100" height="50" class="svg20250513-0-task_neutral"/>
  <rect x="10" y="135" width="100" height="60" class="svg20250513-0-task_neutral"/>
  <rect x="10" y="195" width="100" height="80" class="svg20250513-0-task_neutral"/>
  <text class="svg20250513-0-t1" x="10" y="35">5. coroutine frame</text>
  <text class="svg20250513-0-t1" x="120" y="65">9. state machine*</text>
  <text class="svg20250513-0-t1" x="120" y="110">7. promise</text>
  <text class="svg20250513-0-t1" x="120" y="170">6. arguments</text>
  <text class="svg20250513-0-t1" x="120" y="235">8. coroutine body local variables</text>
  <rect x="400" y="25" width="200" height="35" class="svg20250513-0-task_neutral"/>
  <rect x="400" y="60" width="200" height="35" class="svg20250513-0-task_neutral"/>
  <path class="svg20250513-0-task_neutral" d="M 400 125 v -30 h 200 v 55 z"/>
  <path class="svg20250513-0-task_neutral" d="M 400 135 v 55 h 200 v -30 z"/>
  <rect x="400" y="190" width="200" height="35" class="svg20250513-0-task_neutral"/>
  <path class="svg20250513-0-task_neutral" d="M 400 255 v -30 h 200 v 55 z"/>
  <text class="svg20250513-0-t1" x="620" y="43">9.1. resume fn pointer</text>
  <text class="svg20250513-0-t1" x="620" y="78">9.2. destroy fn pointer</text>
  <text class="svg20250513-0-t1" x="620" y="140">7. promise</text>
  <text class="svg20250513-0-t1" x="620" y="208">9.3. suspend index</text>
  <text class="svg20250513-0-t1" x="620" y="268">6. arguments</text>
</svg>