<svg xmlns="http://www.w3.org/2000/svg" id="svg20250607-10-box" width="100%" viewBox="0 0 800 180">
  <style>
    #svg20250607-10-box {
      border: 1px solid #e8e8e8;
      background-color: #f5f5f5;
    }
    .svg20250607-10-t1 {
      font-family: sans-serif;
      font-size: 16px;
      text-anchor: middle;
      dominant-baseline: middle;
    }
    .svg20250607-10-l1 {
      stroke: #2d93ad;
      stroke-width: 3;
      fill: none;
    }
    .svg20250607-10-arrow {
      stroke: #2d93ad;
      stroke-width: 1;
      fill: #2d93ad;
    }
    .svg20250607-10-l2 {
      stroke: #8ea604;
      stroke-width: 3;
      fill: none;
    }
    .svg20250607-10-arrow2 {
      stroke: #8ea604;
      stroke-width: 1;
      fill: #8ea604;
    }
    .svg20250607-10-l3 {
      stroke: #9665ac;
      stroke-width: 3;
      fill: none;
    }
    .svg20250607-10-arrow3 {
      stroke: #9665ac;
      stroke-width: 1;
      fill: #9665ac;
    }
    .svg20250607-10-l4 {
      stroke: #ee6055;
      stroke-width: 3;
      fill: none;
    }
    .svg20250607-10-box_white {
      stroke: #000000;
      stroke-width: 2;
      fill: #ffffff;
    }
  </style>
  <defs>
    <marker id="svg20250607-10-arrow" viewBox="0, 0, 10, 10" refX="5" refY="5" markerWidth="6" markerHeight="6" orient="auto-start-reverse">
      <path d="M 0 0 L 10 5 L 0 10 L 2.5 5 Z" class="svg20250607-10-arrow"/>
    </marker>
    <marker id="svg20250607-10-arrow2" viewBox="0, 0, 10, 10" refX="5" refY="5" markerWidth="6" markerHeight="6" orient="auto-start-reverse">
      <path d="M 0 0 L 10 5 L 0 10 L 2.5 5 Z" class="svg20250607-10-arrow2"/>
    </marker>
    <marker id="svg20250607-10-arrow3" viewBox="0, 0, 10, 10" refX="5" refY="5" markerWidth="6" markerHeight="6" orient="auto-start-reverse">
      <path d="M 0 0 L 10 5 L 0 10 L 2.5 5 Z" class="svg20250607-10-arrow3"/>
    </marker>
  </defs>
  <path class="svg20250607-10-l1" d="M 140 30 c 0 20 -10 20 -50 20 s -50 0 -50 20" marker-end="url(#svg20250607-10-arrow)"/>
  <path class="svg20250607-10-l2" d="M 140 30 v 40" marker-end="url(#svg20250607-10-arrow2)"/>
  <path class="svg20250607-10-l3" d="M 140 30 c 0 20 10 20 50 20 s 50 0 50 20" marker-end="url(#svg20250607-10-arrow3)"/>
  <path class="svg20250607-10-l1" d="M 40 113 c 0 20 10 20 50 20 s 50 0 50 20"/>
  <path class="svg20250607-10-l3" d="M 240 113 c 0 20 -10 20 -50 20 s -50 0 -50 20"/>
  <path class="svg20250607-10-l2" d="M 140 113 v 40" marker-end="url(#svg20250607-10-arrow2)"/>
  <rect x="10" y="82" width="60" height="40" class="svg20250607-10-box_white"/>
  <rect x="110" y="82" width="60" height="30" class="svg20250607-10-box_white"/>
  <rect x="210" y="82" width="60" height="35" class="svg20250607-10-box_white"/>
  <text class="svg20250607-10-t1" x="140" y="15">wait_all</text>
</svg>