<svg xmlns="http://www.w3.org/2000/svg" id="svg20220701-1-1" width="100%" viewBox="0 0 1000 170">
  <style>
      #svg20220701-1-1 {
        border: 1px solid #e8e8e8;
        background-color: #f5f5f5;
      }
      .svg20220701-1-t1 {
        font-family: sans-serif;
        font-size: 16px;
        font-weight: bold;
        dominant-baseline: middle;
      }
  </style>
  <path stroke="none" fill="#ffffff" d="M 0 32 L 422 32 L 450 60 L 422 88 L 0 88 Z"/>
  <path stroke-width="4" fill="none" stroke="#2f332b" d="M 70 60 L 130 60"/>
  <path stroke-width="4" fill="none" stroke="#2f332b" d="M 170 60 L 230 60"/>
  <path stroke-width="4" fill="none" stroke="#2f332b" d="M 270 60 L 330 60"/>
  <path stroke-width="4" fill="none" stroke="#2f332b" d="M 370 60 L 380 60 Q 400 60 400 80 L 400 120 Q 400 140 420 140 L 430 140"/>
  <circle cx="50" cy="60" r="20" stroke-width="4" stroke="#2f332b" fill="#2d93ad"/>
  <circle cx="150" cy="60" r="20" stroke-width="4" stroke="#2f332b" fill="#2d93ad"/>
  <circle cx="250" cy="60" r="20" stroke-width="4" stroke="#2f332b" fill="#2d93ad"/>
  <circle cx="350" cy="60" r="20" stroke-width="4" stroke="#2f332b" fill="#2d93ad"/>
  <circle cx="450" cy="140" r="20" stroke-width="4" stroke="#2f332b" fill="#6ac3d9"/>
  <text class="svg20220701-1-t1" x="250" y="20" fill="#2f332b" text-anchor="middle">origin</text>
  <text class="svg20220701-1-t1" x="350" y="20" fill="#2f332b" text-anchor="middle">master</text>
  <text class="svg20220701-1-t1" x="450" y="106" fill="#2f332b" text-anchor="middle">staging</text>
</svg>