<svg xmlns="http://www.w3.org/2000/svg" id="svg20220701-4-1" width="100%" viewBox="0 0 1800 430">
  <style>
      #svg20220701-4-1 {
        border: 1px solid #e8e8e8;
        background-color: #f5f5f5;
      }
      .svg20220701-4-t1 {
        font-family: sans-serif;
        font-size: 16px;
        font-weight: bold;
        dominant-baseline: middle;
      }
  </style>
  <path stroke="none" fill="#ffffff" d="M 1600 32 L 1672 32 L 1700 60 L 1672 88 L 1600 88 Z"/>
  <path stroke="none" fill="#ffffff" d="M 1600 192 L 1672 192 L 1700 220 L 1672 248 L 1600 248 Z"/>
  <path stroke-width="4" fill="none" stroke="#8f4300" d="M 470 300 L 480 300 Q 500 300 500 320 L 500 360 Q 500 380 520 380 L 530 380"/>
  <path stroke-width="4" fill="none" stroke="#8f4300" d="M 470 300 L 480 300 Q 500 300 500 280 L 500 240 Q 500 220 520 220 L 530 220"/>
  <path stroke-width="4" fill="none" stroke="#8f4300" d="M 970 220 L 980 220 Q 1000 220 1000 200 L 1000 160 Q 1000 140 1020 140 L 1030 140"/>
  <path stroke-width="4" fill="none" stroke="#8f4300" d="M 1170 300 L 1180 300 Q 1200 300 1200 320 L 1200 360 Q 1200 380 1220 380 L 1230 380"/>
  <path stroke-width="4" fill="none" stroke="#8f4300" d="M 1170 300 L 1180 300 Q 1200 300 1200 280 L 1200 240 Q 1200 220 1220 220 L 1230 220"/>
  <path stroke-width="4" fill="none" stroke="#8f4300" d="M 1570 140 L 1580 140 Q 1600 140 1600 160 L 1600 200 Q 1600 220 1620 220 L 1630 220"/>
  <path stroke-width="4" fill="none" stroke="#8f4300" d="M 1570 140 L 1580 140 Q 1600 140 1600 120 L 1600 80 Q 1600 60 1620 60 L 1630 60"/>
  <path stroke-width="4" fill="none" stroke="#8f4300" d="M 1070 220 L 1080 220 Q 1100 220 1100 240 L 1100 280 Q 1100 300 1120 300 L 1130 300"/>
  <path stroke-width="4" fill="none" stroke="#8f4300" d="M 1270 60 L 1330 60"/>
  <path stroke-width="4" fill="none" stroke="#8f4300" d="M 670 140 L 730 140"/>
  <path stroke-width="4" fill="none" stroke="#8f4300" d="M 1370 140 L 1380 140 Q 1400 140 1400 120 L 1400 80 Q 1400 60 1420 60 L 1430 60"/>
  <path stroke-width="4" fill="none" stroke="#2f332b" d="M 70 60 L 80 60 Q 100 60 100 80 L 100 360 Q 100 380 120 380 L 530 380"/>
  <path stroke-width="4" fill="none" stroke="#2f332b" d="M 70 60 L 80 60 Q 100 60 100 80 L 100 280 Q 100 300 120 300 L 430 300"/>
  <path stroke-width="4" fill="none" stroke="#2f332b" d="M 70 60 L 130 60"/>
  <path stroke-width="4" fill="none" stroke="#2f332b" d="M 570 380 L 1230 380"/>
  <path stroke-width="4" fill="none" stroke="#2f332b" d="M 1270 380 L 1430 380 Q 1450 380 1450 360 L 1450 240 Q 1450 220 1470 220 L 1630 220"/>
  <path stroke-width="4" fill="none" stroke="#2f332b" d="M 870 220 L 930 220"/>
  <path stroke-width="4" fill="none" stroke="#2f332b" d="M 970 220 L 980 220 Q 1000 220 1000 240 L 1000 280 Q 1000 300 1020 300 L 1030 300"/>
  <path stroke-width="4" fill="none" stroke="#2f332b" d="M 1070 300 L 1130 300"/>
  <path stroke-width="4" fill="none" stroke="#2f332b" d="M 970 220 L 1030 220"/>
  <path stroke-width="4" fill="none" stroke="#2f332b" d="M 170 60 L 230 60"/>
  <path stroke-width="4" fill="none" stroke="#2f332b" d="M 270 60 L 280 60 Q 300 60 300 80 L 300 120 Q 300 140 320 140 L 330 140"/>
  <path stroke-width="4" fill="none" stroke="#2f332b" d="M 270 60 L 330 60"/>
  <path stroke-width="4" fill="none" stroke="#2f332b" d="M 370 140 L 380 140 Q 400 140 400 160 L 400 200 Q 400 220 420 220 L 530 220"/>
  <path stroke-width="4" fill="none" stroke="#2f332b" d="M 370 140 L 430 140"/>
  <path stroke-width="4" fill="none" stroke="#2f332b" d="M 570 220 L 680 220 Q 700 220 700 200 L 700 160 Q 700 140 720 140 L 730 140"/>
  <path stroke-width="4" fill="none" stroke="#2f332b" d="M 770 140 L 780 140 Q 800 140 800 160 L 800 200 Q 800 220 820 220 L 830 220"/>
  <path stroke-width="4" fill="none" stroke="#2f332b" d="M 770 140 L 1030 140"/>
  <path stroke-width="4" fill="none" stroke="#2f332b" d="M 1070 140 L 1080 140 Q 1100 140 1100 160 L 1100 200 Q 1100 220 1120 220 L 1230 220"/>
  <path stroke-width="4" fill="none" stroke="#2f332b" d="M 1070 140 L 1130 140"/>
  <path stroke-width="4" fill="none" stroke="#2f332b" d="M 1270 220 L 1280 220 Q 1300 220 1300 200 L 1300 80 Q 1300 60 1320 60 L 1330 60"/>
  <path stroke-width="4" fill="none" stroke="#2f332b" d="M 1370 60 L 1430 60"/>
  <path stroke-width="4" fill="none" stroke="#2f332b" d="M 1470 60 L 1480 60 Q 1500 60 1500 80 L 1500 120 Q 1500 140 1520 140 L 1530 140"/>
  <path stroke-width="4" fill="none" stroke="#2f332b" d="M 1470 60 L 1630 60"/>
  <path stroke-width="4" fill="none" stroke="#2f332b" d="M 370 60 L 430 60"/>
  <path stroke-width="4" fill="none" stroke="#2f332b" d="M 470 60 L 930 60"/>
  <path stroke-width="4" fill="none" stroke="#2f332b" d="M 970 60 L 1230 60"/>
  <path stroke-width="4" fill="none" stroke="#2f332b" d="M 470 140 L 530 140"/>
  <path stroke-width="4" fill="none" stroke="#2f332b" d="M 570 140 L 630 140"/>
  <path stroke-width="4" fill="none" stroke="#2f332b" d="M 1170 140 L 1230 140"/>
  <path stroke-width="4" fill="none" stroke="#2f332b" d="M 1270 140 L 1330 140"/>
  <circle cx="50" cy="60" r="20" stroke-width="4" stroke="#2f332b" fill="#2d93ad"/>
  <circle cx="550" cy="380" r="20" stroke-width="4" stroke="#2f332b" fill="#2d93ad"/>
  <circle cx="1250" cy="380" r="20" stroke-width="4" stroke="#2f332b" fill="#2d93ad"/>
  <circle cx="1650" cy="220" r="20" stroke-width="4" stroke="#2f332b" fill="#2d93ad"/>
  <circle cx="450" cy="300" r="20" stroke-width="4" stroke="#2f332b" fill="#2d93ad"/>
  <circle cx="850" cy="220" r="20" stroke-width="4" stroke="#2f332b" fill="#2d93ad"/>
  <circle cx="950" cy="220" r="20" stroke-width="4" stroke="#2f332b" fill="#2d93ad"/>
  <circle cx="1050" cy="300" r="20" stroke-width="4" stroke="#2f332b" fill="#2d93ad"/>
  <circle cx="1150" cy="300" r="20" stroke-width="4" stroke="#2f332b" fill="#2d93ad"/>
  <circle cx="1550" cy="140" r="20" stroke-width="4" stroke="#2f332b" fill="#2d93ad"/>
  <circle cx="1050" cy="220" r="20" stroke-width="4" stroke="#2f332b" fill="#2d93ad"/>
  <circle cx="150" cy="60" r="20" stroke-width="4" stroke="#2f332b" fill="#2d93ad"/>
  <circle cx="250" cy="60" r="20" stroke-width="4" stroke="#2f332b" fill="#2d93ad"/>
  <circle cx="350" cy="140" r="20" stroke-width="4" stroke="#2f332b" fill="#2d93ad"/>
  <circle cx="550" cy="220" r="20" stroke-width="4" stroke="#2f332b" fill="#2d93ad"/>
  <circle cx="750" cy="140" r="20" stroke-width="4" stroke="#2f332b" fill="#2d93ad"/>
  <circle cx="1050" cy="140" r="20" stroke-width="4" stroke="#2f332b" fill="#2d93ad"/>
  <circle cx="1250" cy="220" r="20" stroke-width="4" stroke="#2f332b" fill="#2d93ad"/>
  <circle cx="1350" cy="60" r="20" stroke-width="4" stroke="#2f332b" fill="#2d93ad"/>
  <circle cx="1450" cy="60" r="20" stroke-width="4" stroke="#2f332b" fill="#2d93ad"/>
  <circle cx="1650" cy="60" r="20" stroke-width="4" stroke="#2f332b" fill="#ffffff"/>
  <circle cx="350" cy="60" r="20" stroke-width="4" stroke="#2f332b" fill="#2d93ad"/>
  <circle cx="450" cy="60" r="20" stroke-width="4" stroke="#2f332b" fill="#2d93ad"/>
  <circle cx="950" cy="60" r="20" stroke-width="4" stroke="#2f332b" fill="#2d93ad"/>
  <circle cx="1250" cy="60" r="20" stroke-width="4" stroke="#2f332b" fill="#2d93ad"/>
  <circle cx="450" cy="140" r="20" stroke-width="4" stroke="#2f332b" fill="#2d93ad"/>
  <circle cx="550" cy="140" r="20" stroke-width="4" stroke="#2f332b" fill="#2d93ad"/>
  <circle cx="650" cy="140" r="20" stroke-width="4" stroke="#2f332b" fill="#2d93ad"/>
  <circle cx="1150" cy="140" r="20" stroke-width="4" stroke="#2f332b" fill="#2d93ad"/>
  <circle cx="1250" cy="140" r="20" stroke-width="4" stroke="#2f332b" fill="#2d93ad"/>
  <circle cx="1350" cy="140" r="20" stroke-width="4" stroke="#2f332b" fill="#2d93ad"/>
  <text class="svg20220701-4-t1" x="1700" y="220" fill="#2f332b" text-anchor="start">master</text>
  <text class="svg20220701-4-t1" x="1700" y="60" fill="#2f332b" text-anchor="start">develop</text>
  <text class="svg20220701-4-t1" x="50" y="20" fill="#2f332b" text-anchor="middle">tag 0.1</text>
  <text class="svg20220701-4-t1" x="550" y="340" fill="#2f332b" text-anchor="middle">tag 0.2</text>
  <text class="svg20220701-4-t1" x="1250" y="340" fill="#2f332b" text-anchor="middle">tag 1.0</text>
  <text class="svg20220701-4-t1" x="1650" y="180" fill="#2f332b" text-anchor="middle">tag 1.1</text>
</svg>