<svg xmlns="http://www.w3.org/2000/svg" id="svg20220701-7-1" width="100%" viewBox="0 0 1800 350">
  <style>
      #svg20220701-7-1 {
        border: 1px solid #e8e8e8;
        background-color: #f5f5f5;
      }
      .svg20220701-7-t1 {
        font-family: sans-serif;
        font-size: 16px;
        font-weight: bold;
        dominant-baseline: middle;
      }
  </style>
  <path stroke="none" fill="#ffffff" d="M 350 32 L 550 32 L 550 88 L 350 88 Z"/>
  <path stroke="none" fill="#ffffff" d="M 750 32 L 1250 32 L 1250 88 L 750 88 Z"/>
  <path stroke="none" fill="#ffffff" d="M 1450 32 L 1650 32 L 1650 88 L 1450 88 Z"/>
  <path stroke="none" fill="#ffffff" d="M 0 112 L 1672 112 L 1700 140 L 1672 168 L 0 168 Z"/>
  <path stroke="none" fill="#ffffff" d="M 250 192 L 1350 192 L 1350 248 L 250 248 Z"/>
  <path stroke="none" fill="#ffffff" d="M 350 272 L 750 272 L 750 328 L 350 328 Z"/>
  <path stroke="none" fill="#ffffff" d="M 1050 272 L 1450 272 L 1450 328 L 1050 328 Z"/>
  <path stroke-width="4" fill="none" stroke="#2f332b" d="M 70 140 L 130 140"/>
  <path stroke-width="4" fill="none" stroke="#2f332b" d="M 70 140 L 80 140 Q 100 140 100 120 L 100 80 Q 100 60 120 60 L 430 60"/>
  <path stroke-width="4" fill="none" stroke="#2f332b" d="M 170 140 L 230 140"/>
  <path stroke-width="4" fill="none" stroke="#2f332b" d="M 170 140 L 330 140"/>
  <path stroke-width="4" fill="none" stroke="#2f332b" d="M 170 140 L 430 140"/>
  <path stroke-width="4" fill="none" stroke="#2f332b" d="M 470 140 L 430 140 Q 450 140 450 120 L 450 80 Q 450 60 470 60 L 430 60" stroke-dasharray="5, 5"/>
  <path stroke-width="4" fill="none" stroke="#2f332b" d="M 470 140 L 530 140"/>
  <path stroke-width="4" fill="none" stroke="#2f332b" d="M 570 140 L 730 140"/>
  <path stroke-width="4" fill="none" stroke="#2f332b" d="M 770 140 L 780 140 Q 800 140 800 120 L 800 80 Q 800 60 820 60 L 830 60"/>
  <path stroke-width="4" fill="none" stroke="#2f332b" d="M 770 140 L 930 140"/>
  <path stroke-width="4" fill="none" stroke="#2f332b" d="M 870 60 L 930 60"/>
  <path stroke-width="4" fill="none" stroke="#2f332b" d="M 970 140 L 930 140 Q 950 140 950 120 L 950 80 Q 950 60 970 60 L 930 60" stroke-dasharray="5, 5"/>
  <path stroke-width="4" fill="none" stroke="#2f332b" d="M 970 140 L 1030 140"/>
  <path stroke-width="4" fill="none" stroke="#2f332b" d="M 1070 140 L 1030 140 Q 1050 140 1050 120 L 1050 80 Q 1050 60 1070 60 L 1030 60" stroke-dasharray="5, 5"/>
  <path stroke-width="4" fill="none" stroke="#2f332b" d="M 970 60 L 1030 60"/>
  <path stroke-width="4" fill="none" stroke="#2f332b" d="M 1070 140 L 1130 140"/>
  <path stroke-width="4" fill="none" stroke="#2f332b" d="M 1070 60 L 1130 60"/>
  <path stroke-width="4" fill="none" stroke="#2f332b" d="M 1170 140 L 1130 140 Q 1150 140 1150 120 L 1150 80 Q 1150 60 1170 60 L 1130 60" stroke-dasharray="5, 5"/>
  <path stroke-width="4" fill="none" stroke="#2f332b" d="M 1170 140 L 1330 140"/>
  <path stroke-width="4" fill="none" stroke="#2f332b" d="M 1370 140 L 1430 140"/>
  <path stroke-width="4" fill="none" stroke="#2f332b" d="M 1470 140 L 1530 140"/>
  <path stroke-width="4" fill="none" stroke="#2f332b" d="M 1470 140 L 1480 140 Q 1500 140 1500 120 L 1500 80 Q 1500 60 1520 60 L 1530 60"/>
  <path stroke-width="4" fill="none" stroke="#2f332b" d="M 1570 140 L 1530 140 Q 1550 140 1550 120 L 1550 80 Q 1550 60 1570 60 L 1530 60" stroke-dasharray="5, 5"/>
  <path stroke-width="4" fill="none" stroke="#2f332b" d="M 270 140 L 280 140 Q 300 140 300 160 L 300 200 Q 300 220 320 220 L 330 220"/>
  <path stroke-width="4" fill="none" stroke="#2f332b" d="M 370 220 L 430 220"/>
  <path stroke-width="4" fill="none" stroke="#2f332b" d="M 470 220 L 930 220"/>
  <path stroke-width="4" fill="none" stroke="#2f332b" d="M 970 220 L 1230 220"/>
  <path stroke-width="4" fill="none" stroke="#8f4300" d="M 1270 220 L 1280 220 Q 1300 220 1300 200 L 1300 160 Q 1300 140 1320 140 L 1330 140"/>
  <path stroke-width="4" fill="none" stroke="#2f332b" d="M 370 140 L 380 140 Q 400 140 400 160 L 400 280 Q 400 300 420 300 L 430 300"/>
  <path stroke-width="4" fill="none" stroke="#2f332b" d="M 470 300 L 530 300"/>
  <path stroke-width="4" fill="none" stroke="#2f332b" d="M 570 300 L 630 300"/>
  <path stroke-width="4" fill="none" stroke="#8f4300" d="M 670 300 L 680 300 Q 700 300 700 280 L 700 160 Q 700 140 720 140 L 730 140"/>
  <path stroke-width="4" fill="none" stroke="#2f332b" d="M 1070 140 L 1080 140 Q 1100 140 1100 160 L 1100 280 Q 1100 300 1120 300 L 1130 300"/>
  <path stroke-width="4" fill="none" stroke="#2f332b" d="M 1170 300 L 1230 300"/>
  <path stroke-width="4" fill="none" stroke="#2f332b" d="M 1270 300 L 1330 300"/>
  <path stroke-width="4" fill="none" stroke="#8f4300" d="M 1370 300 L 1380 300 Q 1400 300 1400 280 L 1400 160 Q 1400 140 1420 140 L 1430 140"/>
  <circle cx="50" cy="140" r="20" stroke-width="4" stroke="#2f332b" fill="#f5bb00"/>
  <circle cx="150" cy="140" r="20" stroke-width="4" stroke="#2f332b" fill="#f5bb00"/>
  <circle cx="250" cy="140" r="20" stroke-width="4" stroke="#2f332b" fill="#f5bb00"/>
  <circle cx="350" cy="140" r="20" stroke-width="4" stroke="#2f332b" fill="#f5bb00"/>
  <circle cx="450" cy="140" r="20" stroke-width="4" stroke="#2f332b" fill="#ee6055"/>
  <circle cx="450" cy="60" r="20" stroke-width="4" stroke="#2f332b" fill="#8ea604"/>
  <circle cx="550" cy="140" r="20" stroke-width="4" stroke="#2f332b" fill="#f5bb00"/>
  <circle cx="750" cy="140" r="20" stroke-width="4" stroke="#2f332b" fill="#f5bb00"/>
  <circle cx="850" cy="60" r="20" stroke-width="4" stroke="#2f332b" fill="#8ea604"/>
  <circle cx="950" cy="140" r="20" stroke-width="4" stroke="#2f332b" fill="#9665ac"/>
  <circle cx="950" cy="60" r="20" stroke-width="4" stroke="#2f332b" fill="#8ea604"/>
  <circle cx="1050" cy="140" r="20" stroke-width="4" stroke="#2f332b" fill="#9665ac"/>
  <circle cx="1050" cy="60" r="20" stroke-width="4" stroke="#2f332b" fill="#8ea604"/>
  <circle cx="1150" cy="140" r="20" stroke-width="4" stroke="#2f332b" fill="#9665ac"/>
  <circle cx="1150" cy="60" r="20" stroke-width="4" stroke="#2f332b" fill="#8ea604"/>
  <circle cx="1350" cy="140" r="20" stroke-width="4" stroke="#2f332b" fill="#f5bb00"/>
  <circle cx="1450" cy="140" r="20" stroke-width="4" stroke="#2f332b" fill="#f5bb00"/>
  <circle cx="1550" cy="140" r="20" stroke-width="4" stroke="#2f332b" fill="#9665ac"/>
  <circle cx="1550" cy="60" r="20" stroke-width="4" stroke="#2f332b" fill="#8ea604"/>
  <circle cx="350" cy="220" r="20" stroke-width="4" stroke="#2f332b" fill="#ff36ab"/>
  <circle cx="450" cy="220" r="20" stroke-width="4" stroke="#2f332b" fill="#ff36ab"/>
  <circle cx="950" cy="220" r="20" stroke-width="4" stroke="#2f332b" fill="#ff36ab"/>
  <circle cx="1250" cy="220" r="20" stroke-width="4" stroke="#2f332b" fill="#ff36ab"/>
  <circle cx="450" cy="300" r="20" stroke-width="4" stroke="#2f332b" fill="#ff36ab"/>
  <circle cx="550" cy="300" r="20" stroke-width="4" stroke="#2f332b" fill="#ff36ab"/>
  <circle cx="650" cy="300" r="20" stroke-width="4" stroke="#2f332b" fill="#ff36ab"/>
  <circle cx="1150" cy="300" r="20" stroke-width="4" stroke="#2f332b" fill="#ff36ab"/>
  <circle cx="1250" cy="300" r="20" stroke-width="4" stroke="#2f332b" fill="#ff36ab"/>
  <circle cx="1350" cy="300" r="20" stroke-width="4" stroke="#2f332b" fill="#ff36ab"/>
  <text class="svg20220701-7-t1" x="1700" y="60" fill="#2f332b" text-anchor="start">release</text>
  <text class="svg20220701-7-t1" x="1700" y="140" fill="#2f332b" text-anchor="start">develop</text>
  <text class="svg20220701-7-t1" x="1700" y="260" fill="#2f332b" text-anchor="start">feature</text>
  <text class="svg20220701-7-t1" x="50" y="100" fill="#2f332b" text-anchor="middle">tag 0.1</text>
  <text class="svg20220701-7-t1" x="450" y="20" fill="#2f332b" text-anchor="middle">tag 0.2</text>
  <text class="svg20220701-7-t1" x="1150" y="20" fill="#2f332b" text-anchor="middle">tag 1.0</text>
  <text class="svg20220701-7-t1" x="1550" y="20" fill="#2f332b" text-anchor="middle">tag 1.1</text>
</svg>