<svg xmlns="http://www.w3.org/2000/svg" id="svg20220701-9-1" width="100%" viewBox="0 0 1200 200">
  <style>
      #svg20220701-9-1 {
        border: 1px solid #e8e8e8;
        background-color: #f5f5f5;
      }
      .svg20220701-9-t1 {
        font-family: sans-serif;
        font-size: 16px;
        font-weight: bold;
        dominant-baseline: middle;
      }
  </style>
  <path stroke="none" fill="#ffffff" d="M 0 32 L 122 32 L 150 60 L 122 88 L 0 88 Z"/>
  <path stroke="none" fill="#ffffff" d="M 50 132 L 172 132 L 200 160 L 172 188 L 50 188 Z"/>
  <path stroke="none" fill="#ffffff" d="M 600 32 L 772 32 L 800 60 L 772 88 L 600 88 Z"/>
  <path stroke-width="4" fill="none" stroke="#2f332b" d="M 70 60 L 80 60 Q 100 60 100 80 L 100 140 Q 100 160 120 160 L 130 160"/>
  <path stroke-width="4" fill="none" stroke="#2f332b" d="M 670 60 L 730 60"/>
  <circle cx="50" cy="60" r="20" stroke-width="4" stroke="#2f332b" fill="#f5bb00"/>
  <circle cx="150" cy="160" r="20" stroke-width="4" stroke="#2f332b" fill="#ff36ab"/>
  <circle cx="650" cy="60" r="20" stroke-width="4" stroke="#2f332b" fill="#f5bb00"/>
  <circle cx="750" cy="60" r="20" stroke-width="4" stroke="#2f332b" fill="#ff36ab"/>
  <text class="svg20220701-9-t1" x="50" y="20" fill="#2f332b" text-anchor="middle">develop</text>
  <text class="svg20220701-9-t1" x="150" y="120" fill="#2f332b" text-anchor="middle">feature</text>
  <text class="svg20220701-9-t1" x="750" y="20" fill="#2f332b" text-anchor="middle">develop</text>
</svg>