<svg xmlns="http://www.w3.org/2000/svg" id="svg20220701-13-1" width="100%" viewBox="0 0 1200 200">
  <style>
      #svg20220701-13-1 {
        border: 1px solid #e8e8e8;
        background-color: #f5f5f5;
      }
      .svg20220701-13-t1 {
        font-family: sans-serif;
        font-size: 16px;
        font-weight: bold;
        dominant-baseline: middle;
      }
  </style>
  <path stroke="none" fill="#ffffff" d="M 50 32 L 172 32 L 200 60 L 172 88 L 50 88 Z"/>
  <path stroke="none" fill="#ffffff" d="M 0 132 L 372 132 L 400 160 L 372 188 L 0 188 Z"/>
  <path stroke="none" fill="#ffffff" d="M 750 32 L 872 32 L 900 60 L 872 88 L 750 88 Z"/>
  <path stroke="none" fill="#ffffff" d="M 600 132 L 972 132 L 1000 160 L 972 188 L 600 188 Z"/>
  <path stroke-width="4" fill="none" stroke="#2f332b" d="M 70 160 L 130 160"/>
  <path stroke-width="4" fill="none" stroke="#2f332b" d="M 70 160 L 80 160 Q 100 160 100 140 L 100 80 Q 100 60 120 60 L 130 60"/>
  <path stroke-width="4" fill="none" stroke="#2f332b" d="M 170 160 L 230 160"/>
  <path stroke-width="4" fill="none" stroke="#2f332b" d="M 270 160 L 330 160"/>
  <path stroke-width="4" fill="none" stroke="#2f332b" d="M 670 160 L 730 160"/>
  <path stroke-width="4" fill="none" stroke="#2f332b" d="M 670 160 L 680 160 Q 700 160 700 140 L 700 80 Q 700 60 720 60 L 730 60"/>
  <path stroke-width="4" fill="none" stroke="#2f332b" d="M 770 160 L 830 160"/>
  <path stroke-width="4" fill="none" stroke="#2f332b" d="M 870 160 L 930 160"/>
  <path stroke-width="4" fill="none" stroke="#2f332b" d="M 770 60 L 830 60"/>
  <path stroke-width="4" fill="none" stroke="#2f332b" d="M 870 160 L 830 160 Q 850 160 850 140 L 850 80 Q 850 60 870 60 L 830 60" stroke-dasharray="5, 5"/>
  <circle cx="50" cy="160" r="20" stroke-width="4" stroke="#2f332b" fill="#f5bb00"/>
  <circle cx="150" cy="160" r="20" stroke-width="4" stroke="#2f332b" fill="#f5bb00"/>
  <circle cx="250" cy="160" r="20" stroke-width="4" stroke="#2f332b" fill="#9665ac"/>
  <circle cx="350" cy="160" r="20" stroke-width="4" stroke="#2f332b" fill="#f5bb00"/>
  <circle cx="150" cy="60" r="20" stroke-width="4" stroke="#2f332b" fill="#8ea604"/>
  <circle cx="650" cy="160" r="20" stroke-width="4" stroke="#2f332b" fill="#f5bb00"/>
  <circle cx="750" cy="160" r="20" stroke-width="4" stroke="#2f332b" fill="#f5bb00"/>
  <circle cx="850" cy="160" r="20" stroke-width="4" stroke="#2f332b" fill="#9665ac"/>
  <circle cx="950" cy="160" r="20" stroke-width="4" stroke="#2f332b" fill="#f5bb00"/>
  <circle cx="750" cy="60" r="20" stroke-width="4" stroke="#2f332b" fill="#8ea604"/>
  <circle cx="850" cy="60" r="20" stroke-width="4" stroke="#2f332b" fill="#8ea604"/>
  <text class="svg20220701-13-t1" x="150" y="20" fill="#2f332b" text-anchor="middle">release</text>
  <text class="svg20220701-13-t1" x="350" y="120" fill="#2f332b" text-anchor="middle">develop</text>
  <text class="svg20220701-13-t1" x="850" y="20" fill="#2f332b" text-anchor="middle">release</text>
  <text class="svg20220701-13-t1" x="950" y="120" fill="#2f332b" text-anchor="middle">develop</text>
</svg>