<svg xmlns="http://www.w3.org/2000/svg" id="svg20220701-16-1" width="100%" viewBox="0 0 1200 200">
  <style>
      #svg20220701-16-1 {
        border: 1px solid #e8e8e8;
        background-color: #f5f5f5;
      }
      .svg20220701-16-t1 {
        font-family: sans-serif;
        font-size: 16px;
        font-weight: bold;
        dominant-baseline: middle;
      }
  </style>
  <path stroke="none" fill="#ffffff" d="M 0 32 L 72 32 L 100 60 L 72 88 L 0 88 Z"/>
  <path stroke="none" fill="#ffffff" d="M 600 32 L 772 32 L 800 60 L 772 88 L 600 88 Z"/>
  <path stroke-width="4" fill="none" stroke="#2f332b" d="M 70 60 L 80 60 Q 100 60 100 80 L 100 140 Q 100 160 120 160 L 130 160"/>
  <path stroke-width="4" fill="none" stroke="#2f332b" d="M 670 60 L 730 60"/>
  <path stroke-width="4" fill="none" stroke="#2f332b" d="M 770 60 L 780 60 Q 800 60 800 80 L 800 140 Q 800 160 820 160 L 830 160"/>
  <circle cx="50" cy="60" r="20" stroke-width="4" stroke="#2f332b" fill="#ff36ab"/>
  <path stroke="#2f332b" stroke-width="1" fill="#ff36ab" d="M 150 140 A 20 20 0 0 0 150 180 Z"/>
  <path stroke="#2f332b" stroke-width="1" fill="#ffcdea" d="M 150 140 A 20 20 0 0 1 150 180 Z"/>
  <circle cx="150" cy="160" r="20" stroke-width="4" stroke="#2f332b" fill="none"/>
  <circle cx="650" cy="60" r="20" stroke-width="4" stroke="#2f332b" fill="#ff36ab"/>
  <circle cx="750" cy="60" r="20" stroke-width="4" stroke="#2f332b" fill="#ff36ab"/>
  <circle cx="850" cy="160" r="20" stroke-width="4" stroke="#2f332b" fill="#ffcdea"/>
  <text class="svg20220701-16-t1" x="50" y="20" fill="#2f332b" text-anchor="middle">feature</text>
  <text class="svg20220701-16-t1" x="150" y="120" fill="#2f332b" text-anchor="start">workspace</text>
  <text class="svg20220701-16-t1" x="750" y="20" fill="#2f332b" text-anchor="middle">feature</text>
  <text class="svg20220701-16-t1" x="850" y="120" fill="#2f332b" text-anchor="start">workspace</text>
</svg>