<svg xmlns="http://www.w3.org/2000/svg" id="svg20230623-6-1" width="100%" viewBox="0 0 800 320">
  <style>
    #svg20230623-6-1 {
      border: 1px solid #e8e8e8;
      background-color: #f5f5f5;
    }
    .svg20230623-6-l1 {
      stroke: #000000;
      stroke-width: 2;
      fill: none;
    }
    .svg20230623-6-l2 {
      stroke: #000000;
      stroke-width: 2;
      fill: none;
      stroke-dasharray: 5;
    }
    .svg20230623-6-task_white {
      stroke: #000000;
      stroke-width: 4;
      fill: #ffffff;
    }
    .svg20230623-6-task_green {
      stroke: #000000;
      stroke-width: 4;
      fill: #c2b102;
    }
    .svg20230623-6-task_neutral2 {
      stroke: #000000;
      stroke-width: 4;
      fill: #6ac3d9;
    }
  </style>
  <rect x="10" y="10" width="80" height="300" class="svg20230623-6-task_white"/>
  <rect x="130" y="85" width="80" height="160" class="svg20230623-6-task_green"/>
  <path class="svg20230623-6-l1" d="M 50 30 v 70 h 120 v 65"/>
  <path class="svg20230623-6-l2" d="M 170 165 v 70 l -120 -125 v 180"/>
  <rect x="290" y="10" width="80" height="300" class="svg20230623-6-task_white"/>
  <rect x="410" y="85" width="80" height="160" class="svg20230623-6-task_neutral2"/>
  <path class="svg20230623-6-l1" d="M 330 30 v 70 h 120 v 20"/>
  <path class="svg20230623-6-l2" d="M 450 120 v 20 l -120 -30 v 55 l 120 -15 v 40 l -120 -15 v 35
    l 120 -10 v 35 l -120 -15 v 70"/>
  <rect x="570" y="10" width="80" height="300" class="svg20230623-6-task_white"/>
  <rect x="690" y="85" width="80" height="160" class="svg20230623-6-task_neutral2"/>
  <path class="svg20230623-6-l1" d="M 610 30 v 70 h 120 v 5"/>
  <path class="svg20230623-6-l2" d="M 730 110 v 5 l 60 -10 v 30 l -60 -10 v 15 l -120 -30 v 55 h 60 l 60 -15 v 40
    l 60 -20 v 40 l -60 -20 l -60 -15 h -60 v 35
    l 120 -10 v 35 l -120 -15 v 70"/>
</svg>