<svg xmlns="http://www.w3.org/2000/svg" id="svg20230623-14-1" width="100%" viewBox="0 0 800 320">
  <style>
    #svg20230623-14-1 {
      border: 1px solid #e8e8e8;
      background-color: #f5f5f5;
    }
    .svg20230623-14-l1 {
      stroke: #000000;
      stroke-width: 2;
      fill: none;
    }
    .svg20230623-14-l2 {
      stroke: #000000;
      stroke-width: 2;
      fill: none;
      stroke-dasharray: 5;
    }
    .svg20230623-14-task_white {
      stroke: #000000;
      stroke-width: 4;
      fill: #ffffff;
    }
    .svg20230623-14-task_grey {
      stroke: #000000;
      stroke-width: 4;
      fill: #cccccc;
    }
    .svg20230623-14-task_green {
      stroke: #000000;
      stroke-width: 4;
      fill: #c2b102;
    }
    .svg20230623-14-task_neutral2 {
      stroke: #000000;
      stroke-width: 4;
      fill: #6ac3d9;
    }
  </style>
  <rect x="10" y="10" width="100" height="70" class="svg20230623-14-task_grey"/>
  <rect x="10" y="80" width="100" height="30" class="svg20230623-14-task_green"/>
  <rect x="10" y="110" width="100" height="20" class="svg20230623-14-task_green"/>
  <rect x="10" y="130" width="100" height="60" class="svg20230623-14-task_green"/>
  <rect x="10" y="190" width="100" height="30" class="svg20230623-14-task_green"/>
  <rect x="10" y="220" width="100" height="55" class="svg20230623-14-task_white"/>
  <rect x="400" y="50" width="100" height="80" class="svg20230623-14-task_neutral2"/>
  <rect x="400" y="130" width="100" height="60" class="svg20230623-14-task_neutral2"/>
  <rect x="400" y="190" width="100" height="50" class="svg20230623-14-task_neutral2"/>
  <rect x="400" y="240" width="100" height="35" class="svg20230623-14-task_neutral2"/>
  <text class="svg20230623-14-t1" x="10" y="297">stack</text>
  <text class="svg20230623-14-t1" x="120" y="212">1. return value</text>
  <text class="svg20230623-14-t1" x="120" y="167">2. arguments</text>
  <text class="svg20230623-14-t1" x="120" y="127">3. return address</text>
  <text class="svg20230623-14-t1" x="120" y="102">4. local variables (ramp)</text>
  <text class="svg20230623-14-t1" x="520" y="97">7. local variables (body)</text>
  <text class="svg20230623-14-t1" x="520" y="167">5. arguments</text>
  <text class="svg20230623-14-t1" x="520" y="222">6. promise</text>
  <text class="svg20230623-14-t1" x="520" y="262">8. state machine</text>
  <text class="svg20230623-14-t1" x="400" y="297">coroutine frame</text>
</svg>