<svg xmlns="http://www.w3.org/2000/svg" id="svg20210417-01-1" width="100%" viewBox="0 0 600 200">
  <style>
      #svg20210417-01-1 {
        border: 1px solid #e8e8e8;
        background-color: #f5f5f5;
      }
      .svg20210417-01-t1 {
        font-family: sans-serif;
        font-size: 16px;
        font-weight: bold;
        text-anchor: middle;
        dominant-baseline: middle;
      }
  </style>
  <path stroke="none" fill="#ffffff" d="M 0 32 L 522 32 L 550 60 L 522 88 L 0 88 Z"/>
  <path stroke="none" fill="#ffffff" d="M 80 132 L 500 132 L 500 188 L 80 188 Z"/>
  <path stroke-width="4" fill="none" stroke="#2f332b" d="M 70 60 L 280 60"/>
  <path stroke-width="4" fill="none" stroke="#8f4300" d="M 70 60 L 80 60 Q 100 60 100 80 L 100 140 Q 100 160 120 160 L 130 160"/>
  <path stroke-width="4" fill="none" stroke="#8f4300" d="M 170 160 L 230 160"/>
  <path stroke-width="4" fill="none" stroke="#8f4300" d="M 270 160 L 330 160"/>
  <path stroke-width="4" fill="none" stroke="#2f332b" d="M 320 60 L 380 60 Q 400 60 400 80 L 400 140 Q 400 160 420 160 L 430 160"/>
  <circle cx="50" cy="60" r="20" stroke-width="4" stroke="#2f332b" fill="#8ea604"/>
  <circle cx="300" cy="60" r="20" stroke-width="4" stroke="#2f332b" fill="#8ea604"/>
  <circle cx="150" cy="160" r="20" stroke-width="4" stroke="#8f4300" fill="#ee6055"/>
  <circle cx="250" cy="160" r="20" stroke-width="4" stroke="#8f4300" fill="#dcb601"/>
  <circle cx="350" cy="160" r="20" stroke-width="4" stroke="#8f4300" fill="#8ea604"/>
  <circle cx="450" cy="160" r="20" stroke-width="4" stroke="#2f332b" fill="#c2b102"/>
  <text class="svg20210417-01-t1" x="300" y="20" fill="#2f332b">develop</text>
  <text class="svg20210417-01-t1" x="450" y="120" fill="#2f332b">feature A</text>
</svg>