<svg xmlns="http://www.w3.org/2000/svg" id="svg20251118-1-box" width="100%" viewBox="0 0 800 180">
  <style>
    #svg20251118-1-box {
      border: 1px solid #e8e8e8;
      background-color: #f5f5f5;
    }
    .svg20251118-1-t1 {
      font-family: sans-serif;
      font-size: 16px;
      text-anchor: middle;
      dominant-baseline: middle;
    }
    .svg20251118-1-l1 {
      stroke: #2d93ad;
      stroke-width: 3;
      fill: none;
    }
    .svg20251118-1-arrow {
      stroke: #2d93ad;
      stroke-width: 1;
      fill: #2d93ad;
    }
    .svg20251118-1-l2 {
      stroke: #8ea604;
      stroke-width: 3;
      fill: none;
    }
    .svg20251118-1-arrow2 {
      stroke: #8ea604;
      stroke-width: 1;
      fill: #8ea604;
    }
    .svg20251118-1-l3 {
      stroke: #9665ac;
      stroke-width: 3;
      fill: none;
    }
    .svg20251118-1-arrow3 {
      stroke: #9665ac;
      stroke-width: 1;
      fill: #9665ac;
    }
    .svg20251118-1-l4 {
      stroke: #ee6055;
      stroke-width: 3;
      fill: none;
    }
    .svg20251118-1-box_white {
      stroke: #000000;
      stroke-width: 2;
      fill: #ffffff;
    }
  </style>
  <defs>
    <marker id="svg20251118-1-arrow" viewBox="0, 0, 10, 10" refX="5" refY="5" markerWidth="6" markerHeight="6" orient="auto-start-reverse">
      <path d="M 0 0 L 10 5 L 0 10 L 2.5 5 Z" class="svg20251118-1-arrow"/>
    </marker>
    <marker id="svg20251118-1-arrow2" viewBox="0, 0, 10, 10" refX="5" refY="5" markerWidth="6" markerHeight="6" orient="auto-start-reverse">
      <path d="M 0 0 L 10 5 L 0 10 L 2.5 5 Z" class="svg20251118-1-arrow2"/>
    </marker>
    <marker id="svg20251118-1-arrow3" viewBox="0, 0, 10, 10" refX="5" refY="5" markerWidth="6" markerHeight="6" orient="auto-start-reverse">
      <path d="M 0 0 L 10 5 L 0 10 L 2.5 5 Z" class="svg20251118-1-arrow3"/>
    </marker>
  </defs>
  <path class="svg20251118-1-l1" d="M 140 30 c 0 20 -10 20 -50 20 s -50 0 -50 20" marker-end="url(#svg20251118-1-arrow)"/>
  <path class="svg20251118-1-l2" d="M 140 30 v 40" marker-end="url(#svg20251118-1-arrow2)"/>
  <path class="svg20251118-1-l3" d="M 140 30 c 0 20 10 20 50 20 s 50 0 50 20" marker-end="url(#svg20251118-1-arrow3)"/>
  <path class="svg20251118-1-l1" d="M 40 113 c 0 20 10 20 50 20 s 50 0 50 20"/>
  <path class="svg20251118-1-l3" d="M 240 113 c 0 20 -10 20 -50 20 s -50 0 -50 20"/>
  <path class="svg20251118-1-l2" d="M 140 113 v 40" marker-end="url(#svg20251118-1-arrow2)"/>
  <path class="svg20251118-1-box_white" d="M 10 82 h 60 v 30 l -60 10 z"/>
  <rect x="110" y="82" width="60" height="30" class="svg20251118-1-box_white"/>
  <path class="svg20251118-1-box_white" d="M 210 82 h 60 v 30 l -60 10 z"/>
  <line class="svg20251118-1-l4" x1="15" y1="115" x2="25" y2="105"/>
  <line class="svg20251118-1-l4" x1="15" y1="105" x2="25" y2="115"/>
  <line class="svg20251118-1-l4" x1="215" y1="115" x2="225" y2="105"/>
  <line class="svg20251118-1-l4" x1="215" y1="105" x2="225" y2="115"/>
  <text class="svg20251118-1-t1" x="140" y="15">wait_any</text>
</svg>