<svg xmlns="http://www.w3.org/2000/svg" id="svg20251118-8-box" width="100%" viewBox="0 0 800 88">
  <style>
    #svg20251118-8-box {
      border: 1px solid #e8e8e8;
      background-color: #f5f5f5;
    }
    .svg20251118-8-t1 {
      font-family: sans-serif;
      font-size: 16px;
      text-anchor: left;
      dominant-baseline: middle;
    }
    .svg20251118-8-t2 {
      font-family: sans-serif;
      font-size: 16px;
      text-anchor: left;
      dominant-baseline: middle;
      fill: #ee6055;
    }
    .svg20251118-8-l1 {
      stroke: #2d93ad;
      stroke-width: 3;
      fill: none;
    }
    .svg20251118-8-arrow1 {
      stroke: #2d93ad;
      stroke-width: 1;
      fill: #2d93ad;
    }
    .svg20251118-8-box_white {
      stroke: #000000;
      stroke-width: 2;
      fill: #ffffff;
    }
  </style>
  <defs>
    <marker id="svg20251118-8-arrow1" viewBox="0, 0, 10, 10" refX="5" refY="5" markerWidth="6" markerHeight="6" orient="auto-start-reverse">
      <path d="M 0 0 L 10 5 L 0 10 L 2.5 5 Z" class="svg20251118-8-arrow1"/>
    </marker>
  </defs>
  <rect x="10" y="5" width="180" height="78" class="svg20251118-8-box_white"/>
  <rect x="210" y="52" width="60" height="30" class="svg20251118-8-box_white"/>
  <path class="svg20251118-8-l1" d="M 170 58 c 20 -70 70 -40 70 -18" marker-end="url(#svg20251118-8-arrow1)"/>
  <rect x="280" y="52" width="60" height="30" class="svg20251118-8-box_white"/>
  <path class="svg20251118-8-l1" d="M 240 58 c 20 -70 70 -40 70 -18" marker-end="url(#svg20251118-8-arrow1)"/>
  <rect x="350" y="52" width="60" height="30" class="svg20251118-8-box_white"/>
  <path class="svg20251118-8-l1" d="M 310 58 c 20 -70 70 -40 70 -18" marker-end="url(#svg20251118-8-arrow1)"/>
  <rect x="420" y="52" width="60" height="30" class="svg20251118-8-box_white"/>
  <path class="svg20251118-8-l1" d="M 380 58 c 20 -70 70 -40 70 -18" marker-end="url(#svg20251118-8-arrow1)"/>
  <text class="svg20251118-8-t1" x="20" y="25">run</text>
  <text class="svg20251118-8-t2" x="30" y="45">stop_source: true</text>
  <text class="svg20251118-8-t1" x="30" y="65">done: false</text>
</svg>