<svg xmlns="http://www.w3.org/2000/svg" id="svg20251118-18-box" width="100%" viewBox="0 0 800 320">
  <style>
    #svg20251118-18-box {
      border: 1px solid #e8e8e8;
      background-color: #f5f5f5;
    }
    .svg20251118-18-t1 {
      font-family: sans-serif;
      font-size: 16px;
      text-anchor: left;
      dominant-baseline: middle;
    }
    .svg20251118-18-t2 {
      font-family: sans-serif;
      font-size: 16px;
      text-anchor: left;
      dominant-baseline: middle;
      fill: #ee6055;
    }
    .svg20251118-18-l0 {
      stroke: #f5bb00;
      stroke-width: 3;
      fill: none;
    }
    .svg20251118-18-arrow0 {
      stroke: #f5bb00;
      stroke-width: 1;
      fill: #f5bb00;
    }
    .svg20251118-18-l1 {
      stroke: #2d93ad;
      stroke-width: 3;
      fill: none;
    }
    .svg20251118-18-arrow1 {
      stroke: #2d93ad;
      stroke-width: 1;
      fill: #2d93ad;
    }
    .svg20251118-18-l2 {
      stroke: #8ea604;
      stroke-width: 3;
      fill: none;
    }
    .svg20251118-18-arrow2 {
      stroke: #8ea604;
      stroke-width: 1;
      fill: #8ea604;
    }
    .svg20251118-18-l3 {
      stroke: #9665ac;
      stroke-width: 3;
      fill: none;
    }
    .svg20251118-18-arrow3 {
      stroke: #9665ac;
      stroke-width: 1;
      fill: #9665ac;
    }
    .svg20251118-18-l4 {
      stroke: #ee6055;
      stroke-width: 3;
      fill: none;
    }
    .svg20251118-18-box_white {
      stroke: #000000;
      stroke-width: 2;
      fill: #ffffff;
    }
  </style>
  <defs>
    <marker id="svg20251118-18-arrow0" viewBox="0, 0, 10, 10" refX="5" refY="5" markerWidth="6" markerHeight="6" orient="auto-start-reverse">
      <path d="M 0 0 L 10 5 L 0 10 L 2.5 5 Z" class="svg20251118-18-arrow0"/>
    </marker>
    <marker id="svg20251118-18-arrow1" viewBox="0, 0, 10, 10" refX="5" refY="5" markerWidth="6" markerHeight="6" orient="auto-start-reverse">
      <path d="M 0 0 L 10 5 L 0 10 L 2.5 5 Z" class="svg20251118-18-arrow1"/>
    </marker>
    <marker id="svg20251118-18-arrow2" viewBox="0, 0, 10, 10" refX="5" refY="5" markerWidth="6" markerHeight="6" orient="auto-start-reverse">
      <path d="M 0 0 L 10 5 L 0 10 L 2.5 5 Z" class="svg20251118-18-arrow2"/>
    </marker>
    <marker id="svg20251118-18-arrow3" viewBox="0, 0, 10, 10" refX="5" refY="5" markerWidth="6" markerHeight="6" orient="auto-start-reverse">
      <path d="M 0 0 L 10 5 L 0 10 L 2.5 5 Z" class="svg20251118-18-arrow3"/>
    </marker>
  </defs>
  <rect x="10" y="105" width="180" height="78" class="svg20251118-18-box_white"/>
  <rect x="210" y="152" width="60" height="30" class="svg20251118-18-box_white"/>
  <path class="svg20251118-18-l0" d="M 160 158 c 20 -70 70 -40 70 -18" marker-end="url(#svg20251118-18-arrow0)"/>
  <text class="svg20251118-18-t1" x="20" y="125">run</text>
  <text class="svg20251118-18-t2" x="30" y="145">stop_source: true</text>
  <text class="svg20251118-18-t1" x="30" y="165">done: false</text>
  <rect x="280" y="5" width="180" height="310" class="svg20251118-18-box_white"/>
  <path class="svg20251118-18-l0" d="M 310 183 c -5 30 -40 30 -66 -16" marker-end="url(#svg20251118-18-arrow0)"/>
  <rect x="480" y="252" width="60" height="30" class="svg20251118-18-box_white"/>
  <path class="svg20251118-18-l3" d="M 510 283 q -100 40 -190 -90" marker-end="url(#svg20251118-18-arrow3)"/>
  <line class="svg20251118-18-l4" x1="310" y1="175" x2="320" y2="165"/>
  <line class="svg20251118-18-l4" x1="310" y1="165" x2="320" y2="175"/>
  <line class="svg20251118-18-l4" x1="225" y1="165" x2="235" y2="155"/>
  <line class="svg20251118-18-l4" x1="225" y1="155" x2="235" y2="165"/>
  <text class="svg20251118-18-t1" x="200" y="85">parent</text>
  <text class="svg20251118-18-t1" x="200" y="105">chain</text>
  <text class="svg20251118-18-t1" x="290" y="25">wait_any</text>
  <text class="svg20251118-18-t2" x="300" y="45">stop_source: true</text>
  <text class="svg20251118-18-t2" x="300" y="65">pending: 0</text>
  <text class="svg20251118-18-t1" x="690" y="265">child chain 3</text>
</svg>